<?xml version="1.0" encoding="utf-8"?>
<!-- Generator: Adobe Illustrator 27.0.1, SVG Export Plug-In . SVG Version: 6.00 Build 0)  -->
<svg version="1.1" id="Layer_1" xmlns="http://www.w3.org/2000/svg" xmlns:xlink="http://www.w3.org/1999/xlink" x="0px" y="0px"
	 width="384px" height="384px" viewBox="0 0 384 384" enable-background="new 0 0 384 384" xml:space="preserve">
<path d="M196.5,0c2,0.6,4.1,1.1,6.1,1.8c13,4.5,21.2,16.3,21.5,30.8c0.1,5.5,0.2,11,0,16.5c-0.1,2.7,0.8,3.8,3.4,4.8
	c37.3,13.3,61.6,39.1,72.7,77.2c3,10.1,3.8,20.6,3.9,31.1c0.1,18.5-0.5,37,0.7,55.5c1.8,28.8,14.2,52.9,35.2,72.7
	c1.6,1.5,3.4,3,5,4.6c7.1,7,9.3,17.3,5.4,26.3c-4.2,9.5-11.6,14.7-22,14.8c-25.9,0.2-51.7,0.1-77.6,0.1c-0.9,0-1.7,0-2.9,0
	c-0.4,1.9-0.8,3.7-1.3,5.4c-6.7,23.2-21.8,37.2-45.5,41.9c-0.7,0.1-1.4,0.5-2,0.7c-4.5,0-9,0-13.5,0c-2.5-0.6-5.1-1.1-7.5-1.9
	c-21.7-6.6-35.3-20.8-40.5-42.9c-0.2-1-0.5-1.9-0.8-3.2c-1.3,0-2.7,0-4,0c-25.5,0-51,0.1-76.5-0.1c-9.7-0.1-17-4.7-21.3-13.4
	c-4.2-8.6-3.3-17,2.3-24.8c1.4-1.9,3.2-3.5,4.9-5.1c25.5-22.8,38.1-51.4,38.3-85.5c0.1-16.9-0.2-33.7,0.1-50.6
	c0.9-45.9,31.8-87.8,75.3-102.3c3.4-1.1,4.6-2.6,4.5-6.2c-0.2-6.4-0.4-12.8,0.3-19.1c1.4-14.5,11.2-25.1,25.5-28.2
	c0.6-0.1,1.1-0.4,1.7-0.7C190.5,0,193.5,0,196.5,0z M192.2,320.1c0-0.1,0-0.1,0-0.2c16,0,32,0,48,0c28.6,0,57.2,0.1,85.8,0.2
	c4.2,0,7.7-0.9,9.4-5.2c1.4-3.6,0.4-6.6-3.5-10.1c-29.4-26.3-43.9-59.3-43.9-98.8c0-14.9,0.1-29.7,0-44.6c0-5-0.2-10-1-14.9
	c-8.6-57.2-63.7-93.5-119.8-79.1c-40.8,10.5-70.7,48.4-71.2,90.6c-0.2,18.1,0.3,36.2-0.2,54.4c-0.7,27.9-9.8,53.1-27.2,75
	c-5.2,6.5-11.4,12.2-17.3,18.1c-2.7,2.7-4.2,5.6-2.8,9.4c1.4,3.8,4.5,5.2,8.3,5.3c1.1,0,2.2,0,3.4,0
	C104.2,320.1,148.2,320.1,192.2,320.1z M153.1,336.1c3.3,18.3,20.9,32.4,39.4,31.9c18.9-0.5,36.4-15,38.3-31.9
	C205,336.1,179.1,336.1,153.1,336.1z M207.9,48.4c0-5.7,0.2-11.7,0-17.6c-0.3-7.9-6.6-14-14.7-14.8c-7.4-0.7-15.5,4.7-16.5,12.3
	c-0.9,6.7-0.2,13.6-0.2,20.2C186.9,48.4,197.2,48.4,207.9,48.4z"/>
</svg>
