<?xml version="1.0" encoding="utf-8"?>
<!-- Generator: Adobe Illustrator 27.0.1, SVG Export Plug-In . SVG Version: 6.00 Build 0)  -->
<svg version="1.1" id="Layer_1" xmlns="http://www.w3.org/2000/svg" xmlns:xlink="http://www.w3.org/1999/xlink" x="0px" y="0px"
	 width="409.6px" height="409.6px" viewBox="0 0 409.6 409.6" enable-background="new 0 0 409.6 409.6" xml:space="preserve">
<path d="M409.3,184.8c-1.3,3.2-2.2,6.6-3.9,9.5c-4.2,7.3-10.6,11.7-18.9,13.5c-46.8,10.4-93.6,20.9-140.5,31.2
	c-3.2,0.7-4.3,1.9-4.2,5.2c0.3,7.7,0.1,15.4,0.1,23.2c-0.1,8.6-3.1,11.6-11.5,11.6c-17.2,0-34.3,0-51.5,0c-8.2,0-11.3-3.1-11.3-11.4
	c-0.1-7.9-0.2-15.7,0.1-23.6c0.1-3.1-0.8-4.4-3.9-5C117,228.8,70.2,218.4,23.3,208c-14.2-3.2-22.9-14-22.9-28.6
	c-0.1-18.8,0-37.5,0-56.3c0-18,10.8-29.1,28.8-29.9c1.1,0,2.1,0,3.2,0c115.2,0,230.5,0,345.7,0c10.4,0,19.7,2.4,25.8,11.5
	c2.5,3.7,3.7,8.2,5.4,12.3C409.3,139.6,409.3,162.2,409.3,184.8z M242,221.3c1.9-0.3,3.3-0.5,4.7-0.8c44.7-10,89.5-20,134.2-30
	c7.5-1.7,9.8-4.4,9.8-12.1c0-18.2,0-36.5,0-54.7c0-8.5-3-11.7-11.4-11.7c-116.3,0-232.6,0-348.9,0c-8.4,0-11.4,3.1-11.5,11.7
	c0,18.2,0,36.5,0,54.7c0,7.7,2.3,10.5,9.8,12.2c35.3,7.9,70.5,15.8,105.8,23.7c10.9,2.4,21.7,4.8,33.1,7.3c0-2.2,0-3.8,0-5.5
	c0.2-8,3.2-11.1,11.2-11.1c6.9,0,13.8,0,20.8,0c10.5,0,21,0,31.5,0c7.4,0,10.4,3,10.8,10.3C242.1,217.1,242,219,242,221.3z
	 M186.5,260.4c12.4,0,24.4,0,36.6,0c0-12.4,0-24.5,0-36.8c-12.3,0-24.3,0-36.6,0C186.5,235.9,186.5,247.9,186.5,260.4z M369.3,381.2
	c5.1,0,10.5-0.8,15.1-2.9c11.3-5.1,15.6-14.8,15.6-26.9c-0.1-38.7,0-77.5,0-116.2c0-1.2,0-2.4-0.2-3.6c-0.6-5.7-4.9-8.9-10.6-8
	c-5.6,0.9-7.8,4.2-7.8,11.5c0,38.3,0,76.7,0,115c0,9.9-2.8,12.7-12.9,12.7c-109.1,0-218.2,0-327.3,0c-10.1,0-12.8-2.7-12.9-12.7
	c0-38.1,0-76.1,0-114.2c0-2.1-0.2-4.3-0.7-6.3c-0.7-3.1-2.8-5-5.9-5.8c-7.1-1.7-11.9,2.2-11.9,10.2c-0.1,39.5-0.1,79.1,0.1,118.6
	c0,4.4,1,9.1,2.8,13.1c5.2,11.2,14.8,15.6,26.9,15.6c55.1,0,110.2,0,165.3,0C259.6,381.4,314.5,381.4,369.3,381.2z M247.6,28.2
	c-12.1,0-24.2,0-36.3,0c-17.3,0-34.6,0-51.9,0c-9.6,0-17.7,3.3-23.5,11.2c-6.5,8.8-6.2,19-4.7,29.1c0.6,4,4.9,6.3,9.2,6
	c4.5-0.3,7.9-3.2,8.3-7.7c0.4-3.3,0.1-6.6,0.3-10c0.3-6.7,3.5-10.1,10.2-10.2c30.3-0.1,60.7-0.1,91,0c6.9,0,10.1,3.4,10.4,10.4
	c0.1,3.1-0.1,6.1,0.2,9.2c0.4,5,4.1,8.2,9.1,8.2c4.8,0,8.4-3,9.1-7.8c0.3-2.4,0.1-4.8,0.1-7.2C279.1,39,268.3,28.2,247.6,28.2z"/>
</svg>
