<?xml version="1.0" encoding="utf-8"?>
<!-- Generator: Adobe Illustrator 26.0.0, SVG Export Plug-In . SVG Version: 6.00 Build 0)  -->
<svg version="1.1" id="Layer_1" xmlns="http://www.w3.org/2000/svg" xmlns:xlink="http://www.w3.org/1999/xlink" x="0px" y="0px"
	 width="384px" height="296px" viewBox="0 0 384 296" enable-background="new 0 0 384 296" xml:space="preserve">
<path d="M369.8,295.3c-118.5,0-237.1,0-355.6,0c-9.8-4.4-12.9-12.1-12.9-22.6c0.2-71.6,0.1-143.3,0.1-214.9c0-12.6,7.4-20,20-20.1
	c5.5,0,11,0,16.8,0c0-8.3,0-16.3,0-24.3c16.6,0,32.7,0,49.2,0c0,8.2,0,16,0,24c14.5,0,28.6,0,43,0c0-5.8,0-11.3,0-16.8
	c0-12,7.7-19.8,19.6-19.8c27.9,0,55.8,0,83.7,0c12,0,19.7,7.8,19.7,19.7c0,5.6,0,11.2,0,17.2c1.9,0,3.5,0,5.1,0
	c34.3,0,68.5,0,102.8,0c14.1,0,21.2,7.1,21.2,21.2c0,71.3-0.1,142.5,0.1,213.8C382.7,283.2,379.6,290.9,369.8,295.3z M192.4,50
	c-56.5,0-113,0-169.5,0c-7.5,0-9.2,1.7-9.2,9.3c0,71.6,0,143.2,0,214.9c0,7.7,1.6,9.3,9.2,9.3c112.8,0,225.5,0,338.3,0
	c7.5,0,9.2-1.7,9.2-9.3c0-71.6,0-143.2,0-214.9c0-7.8-1.6-9.3-9.5-9.3C304.6,50,248.5,50,192.4,50z M143.1,37.4
	c32.8,0,65.3,0,98.2,0c0-5.3,0-10.3,0-15.2c0-7.3-1.7-9.1-9-9.1c-26.7,0-53.5,0-80.2,0c-1.2,0-2.5,0-3.7,0.1c-2.8,0.3-4.9,2-5.1,4.7
	C142.9,24.3,143.1,30.8,143.1,37.4z M50.9,25.5c0,4.1,0,8,0,12c8.1,0,16,0,23.9,0c0-4.1,0-8,0-12C66.7,25.5,58.9,25.5,50.9,25.5z
	 M194.5,265c-52.4,1.8-98.7-41.1-100.6-93.3c-2-56.1,40-101.5,95.7-103.3c52.9-1.8,99.1,41,100.8,93.3
	C292.3,217.9,250.3,263.1,194.5,265z M192,252.6c47.5,0.1,86.2-38.5,86.2-85.9c0-47.2-38.6-85.9-85.8-86
	c-47.6-0.1-86.2,38.3-86.4,85.8C105.9,213.8,144.6,252.6,192,252.6z M351.9,86.5c0.1,13.6-10.9,24.7-24.4,24.7
	c-13.5,0.1-24.6-10.9-24.6-24.5c-0.1-13.6,10.8-24.7,24.4-24.8C340.7,61.9,351.9,72.9,351.9,86.5z M327.3,74.4
	c-6.7,0-12.2,5.4-12.2,12.1c-0.1,6.8,5.6,12.4,12.4,12.3c6.8,0,12.4-5.8,12.2-12.5C339.6,79.6,334.1,74.3,327.3,74.4z M81.1,86.6
	c0-4,0-7.8,0-11.8c-12.2,0-24.3,0-36.5,0c0,3.9,0,7.6,0,11.8C56.9,86.6,68.9,86.6,81.1,86.6z M192.1,99.2
	c37.3,0,67.6,30.1,67.6,67.4c0.1,37.4-30.4,67.9-67.7,67.8c-37.2-0.1-67.4-30.4-67.4-67.7C124.6,129.4,154.8,99.2,192.1,99.2z
	 M191.9,221.9c30.6,0.1,55.5-24.6,55.6-55.1c0.1-30.3-24.7-55.3-54.9-55.4c-30.8-0.1-55.8,24.7-55.8,55.3
	C136.8,197.1,161.6,221.8,191.9,221.9z M196.3,138.5c0-4.1,0-8,0-11.9c-28.6,0.3-44.1,26-42.2,42.8c3.8,0,7.6,0,11.5,0
	C167.7,150.9,177.9,140.5,196.3,138.5z"/>
</svg>
