<?xml version="1.0" encoding="utf-8"?>
<!-- Generator: Adobe Illustrator 27.0.1, SVG Export Plug-In . SVG Version: 6.00 Build 0)  -->
<svg version="1.1" id="Layer_1" xmlns="http://www.w3.org/2000/svg" xmlns:xlink="http://www.w3.org/1999/xlink" x="0px" y="0px"
	 width="409.6px" height="409.6px" viewBox="0 0 409.6 409.6" enable-background="new 0 0 409.6 409.6" xml:space="preserve">
<path d="M17.1,409.2c-1.8-2-4.5-3.6-5.3-6c-1.9-5.2,2.1-9.8,8.1-10c5.8-0.2,11.6,0,17.8,0c0-1.9,0-3.3,0-4.8
	c0-21.3,0.5-42.6-0.1-63.9c-0.5-16.4,11.1-25.7,24.8-25c11.1,0.6,22.3,0.1,33.5,0.1c15.1,0,23.7,8.6,23.8,23.8
	c0.1,21.4,0,42.8,0,64.3c0,1.6,0,3.2,0,5.1c14.8,0,29.3,0,44.4,0c0-1.5,0-3,0-4.6c0-44,0-88.1,0-132.1c0-12,6.3-20.5,17-22.9
	c2.2-0.5,4.5-0.6,6.7-0.6c11.4-0.1,22.9,0,34.3,0c15.4,0,24.1,8.7,24.1,23.9c0,43.8,0,87.5,0,131.3c0,1.6,0,3.2,0,5
	c14.8,0,29.4,0,44.5,0c0-1.7,0-3.3,0-5c0-82.1,0-164.2-0.1-246.3c0-9.8,3.2-17.6,12.2-21.9c3.3-1.6,7.4-2.1,11.2-2.2
	c11.7-0.3,23.4-0.1,35.1-0.1c14.9,0.1,23.4,8.7,23.5,23.6c0.1,19.3,0,38.6,0,57.9c0,62.9,0,125.9,0,188.8c0,1.7,0,3.4,0,5.3
	c5.3,0,10.1,0,14.8,0c5.9,0,9.2,1.9,10.3,5.7c1.2,4.2-0.4,7-5.5,10.3C267.3,409.2,142.2,409.2,17.1,409.2z M306.8,393
	c16.9,0,33.3,0,49.8,0c0.1-1.2,0.2-2.2,0.2-3.3c0-82.9,0-165.8,0-248.6c0-6.1-1.5-7.6-7.6-7.6c-11.2,0-22.3,0-33.5,0
	c-7.9,0-8.9,1-8.9,9.1c0,81.9,0,163.9,0,245.8C306.8,389.9,306.8,391.3,306.8,393z M230.2,393c0.1-0.8,0.2-1.3,0.2-1.9
	c0-45.2,0-90.4,0-135.6c0-4.9-2.1-6.8-7.2-6.9c-11.3,0-22.6,0-33.9,0c-7.7,0-9.1,1.4-9.1,9c0,43.6,0,87.2,0,130.8c0,1.4,0,2.9,0,4.5
	C197,393,213.4,393,230.2,393z M53.7,392.9c17,0,33.4,0,49.7,0c0.1-0.6,0.2-0.8,0.2-1.1c0-23.1,0.1-46.3,0-69.4c0-4.9-2-6.6-6.9-6.6
	c-11.8,0-23.7,0-35.5,0c-5.9,0-7.5,1.7-7.5,7.6c0,17.6,0,35.1,0,52.7C53.7,381.6,53.7,387.2,53.7,392.9z M265.9,94.5
	c-9-8.9-17.9-17.8-26.8-26.8c-6.1-6.1-9.7-6.1-15.8,0c-46.4,46.4-92.7,92.8-139.1,139.2c-1.2,1.2-2.4,2.5-3.3,4
	c-1.8,3.1-1.2,7.1,1.4,9.5c2.5,2.4,6.6,2.9,9.6,0.9c1.5-1,2.9-2.4,4.2-3.7c43.9-43.9,87.9-87.8,131.8-131.8c1.1-1.1,1.7-2.7,2.5-4.1
	c1.4,1.3,1.6,1.4,1.8,1.6c8.9,8.8,17.7,17.7,26.5,26.5c6.3,6.3,9.7,6.3,16,0c26.2-26.1,52.3-52.3,78.5-78.4c1-1,2-1.9,3.7-3.5
	c0,2.4,0,3.7,0,5c0,6.7,0,13.3,0,20c0,3.6,0.8,6.9,4.3,8.8c4.6,2.4,11.7-0.1,11.6-8.4c-0.1-14.4,0.1-28.7-0.1-43.1
	c-0.1-7-3-9.7-10.2-9.8c-14.5,0-29,0-43.5,0c-7.3,0-11.1,2.7-11.3,7.8c-0.1,5.3,3.9,8.1,11.4,8.1c8.4,0,16.9,0,25.2,0
	c-26.1,26.1-52.1,52.1-78.3,78.3C266.4,94.8,266.1,94.7,265.9,94.5z M68.6,242.5c0-4.3-3.7-7.9-7.9-7.8c-4.2,0-7.8,3.7-7.8,8
	c0,4.4,3.5,7.8,7.9,7.8C65.2,250.4,68.7,246.8,68.6,242.5z"/>
</svg>
