<?xml version="1.0" encoding="utf-8"?>
<!-- Generator: Adobe Illustrator 27.0.1, SVG Export Plug-In . SVG Version: 6.00 Build 0)  -->
<svg version="1.1" id="Layer_1" xmlns="http://www.w3.org/2000/svg" xmlns:xlink="http://www.w3.org/1999/xlink" x="0px" y="0px"
	 width="48px" height="48px" viewBox="0 0 48 48" enable-background="new 0 0 48 48" xml:space="preserve">
<path d="M48,24.3c-0.2,0.8-0.5,1.7-1.1,2.4c-1,1.2-2.2,1.8-3.7,1.8c-0.2,0-0.5,0-0.7,0c0,0-0.1,0-0.1,0.1c0,0.2,0,0.3,0,0.5
	c0,2.4,0,4.8,0,7.3c0,0.4-0.1,0.7-0.5,0.9c-0.4,0.2-0.7,0-1-0.3c-0.1-0.1-0.1-0.1-0.2-0.2c-1.2-1.3-2.3-2.6-3.5-3.8
	c-0.1-0.1-0.3-0.3-0.4-0.4c0,0.1-0.1,0.2-0.1,0.2c-0.1,2.6-2.3,4.5-5,4.5c-4.2,0-8.3,0-12.5,0c-0.4,0-0.7,0.1-0.9,0.4
	c-2.3,2.6-4.7,5.2-7.1,7.8c-0.1,0.1-0.3,0.3-0.4,0.4c-0.5,0.4-1.2,0.1-1.3-0.5c0-0.2,0-0.3,0-0.5c0-2.3,0-4.7,0-7c0-0.2,0-0.4,0-0.6
	c-0.2,0-0.4,0-0.5,0c-1.4,0-2.7,0-4.1,0c-2.5,0-4.3-1.5-4.9-3.9c0-0.1-0.1-0.1-0.1-0.2C0,27,0,21,0,14.9c0-0.1,0.1-0.1,0.1-0.2
	c0.6-2.4,2.3-3.9,4.8-3.9c1.9,0,3.8,0,5.7,0c0.2,0,0.4,0,0.6,0c0-0.2,0-0.4,0-0.6c0-1.1,0-2.2,0-3.3c0-0.8,0.1-1.5,0.5-2.2
	C12.6,2.9,14.1,2,16.2,2C25.1,2,34.1,2,43,2c0.2,0,0.4,0,0.6,0c1.3,0.1,2.4,0.7,3.3,1.6c0.6,0.7,0.9,1.6,1.2,2.4
	C48,12.2,48,18.2,48,24.3z M11.2,43.2c0.2-0.2,0.3-0.3,0.4-0.4c2-2.2,4-4.3,5.9-6.5c0.4-0.4,0.7-0.6,1.3-0.6c4.3,0,8.7,0,13-0.1
	c2.1,0,3.4-1.3,3.4-3.4c0-5.5,0-11,0-16.4c0-2.1-1.3-3.4-3.4-3.4c-2.4,0-4.7,0-7.1,0c-6.5,0-13,0.1-19.4,0c-2.4,0-3.7,1.6-3.7,3.7
	c0.1,5.4,0,10.8,0,16.2c0,2,1.3,3.4,3.4,3.4c1.7,0,3.4,0,5.1,0c0.9,0,1.1,0.3,1.1,1.1c0,1.9,0,3.8,0,5.8
	C11.2,42.7,11.2,42.8,11.2,43.2z M12.9,10.8c0.2,0,0.4,0,0.6,0c6.1,0,12.2,0,18.4,0c1.1,0,2.1,0.3,3,1c1.3,1,1.9,2.4,1.9,4.1
	c0,4.6,0,9.1,0,13.7c0,0.3,0.1,0.6,0.3,0.8c1.1,1.2,2.2,2.4,3.3,3.6c0.1,0.1,0.2,0.2,0.4,0.5c0-0.3,0-0.5,0-0.6c0-1.9,0-3.9,0-5.8
	c0-0.9,0.3-1.1,1.2-1.1c0.4,0,0.7,0,1.1,0c2.1,0,3.4-1.3,3.4-3.4c0-5.5,0-11,0-16.5c0-0.4,0-0.7-0.1-1.1C46,4.8,44.8,3.6,43,3.6
	c-8.9,0-17.8,0-26.7-0.1c-0.1,0-0.3,0-0.4,0c-1.5,0.1-2.9,1.1-3,2.5C12.8,7.6,12.9,9.2,12.9,10.8z M28.4,25.2c0.8,0,1.2-0.3,1.2-0.8
	c0-0.5-0.4-0.8-1.2-0.8c-6.7,0-13.3,0-20,0c-0.2,0-0.4,0-0.6,0.1c-0.4,0.1-0.6,0.4-0.6,0.8c0,0.4,0.2,0.7,0.6,0.7c0.2,0,0.4,0,0.7,0
	c3.3,0,6.6,0,10,0C21.8,25.2,25.1,25.2,28.4,25.2z M8.4,28.4c-0.2,0-0.4,0-0.6,0c-0.4,0.1-0.6,0.3-0.6,0.7c0,0.4,0.2,0.7,0.5,0.8
	C8,30,8.2,30,8.4,30c6.7,0,13.3,0,20,0c0.8,0,1.2-0.3,1.2-0.8c0-0.5-0.4-0.8-1.2-0.8c-3.3,0-6.6,0-10,0
	C15.1,28.4,11.8,28.4,8.4,28.4z M18.3,20.4c0.6,0,0.9-0.3,0.9-0.8c0-0.5-0.4-0.8-0.9-0.8c-0.1,0-0.1,0-0.2,0c-3.3,0-6.5,0-9.8,0
	c-0.2,0-0.4,0-0.6,0.1c-0.4,0.1-0.6,0.7-0.4,1.1c0.2,0.4,0.5,0.4,0.9,0.4c1.7,0,3.3,0,5,0C14.9,20.4,16.6,20.4,18.3,20.4z"/>
</svg>
