<?xml version="1.0" encoding="utf-8"?>
<!-- Generator: Adobe Illustrator 26.0.0, SVG Export Plug-In . SVG Version: 6.00 Build 0)  -->
<svg version="1.1" id="Layer_1" xmlns="http://www.w3.org/2000/svg" xmlns:xlink="http://www.w3.org/1999/xlink" x="0px" y="0px"
	 width="264.8px" height="148.5px" viewBox="0 0 264.8 148.5" enable-background="new 0 0 264.8 148.5" xml:space="preserve">
<path d="M264,19.5c-3.2,3.3-6.3,6.7-9.5,10c-37.1,37.2-74.2,74.3-111.3,111.4c-7.4,7.4-13.5,7.4-20.9,0C83.4,102,44.6,63,5.6,24.2
	c-3.4-3.4-5.6-7.1-4.7-12c1.5-8.9,12.1-13,19.2-7.4c1.2,0.9,2.2,2,3.3,3.1c35.4,35.5,70.9,70.9,106.3,106.4c1,1,2,1.9,3.8,3.6
	c0.9-1.4,1.6-2.8,2.7-3.8c35.2-35.3,70.5-70.6,105.8-105.9C250.2-0.2,256.4,0,264,9C264,12.5,264,16,264,19.5z"/>
</svg>
