<?xml version="1.0" encoding="utf-8"?>
<!-- Generator: Adobe Illustrator 27.0.1, SVG Export Plug-In . SVG Version: 6.00 Build 0)  -->
<svg version="1.1" id="Layer_1" xmlns="http://www.w3.org/2000/svg" xmlns:xlink="http://www.w3.org/1999/xlink" x="0px" y="0px"
	 width="384px" height="384px" viewBox="0 0 384 384" enable-background="new 0 0 384 384" xml:space="preserve">
<path d="M147.4,216.1c-3.3,0-6,0-8.6,0c-12.4,0-25,0.1-37.4,0c-7.4-0.1-10-2.3-10-9.4c-0.1-19.1-0.2-38.4,0-57.5
	c0.1-7.1,2.7-9.3,10.1-9.4c13.5-0.1,27,0,40.7,0c1.6,0,3.3,0,5.5,0c0-2.2,0-4,0-5.8c0.4-17.3-0.4-34.7,1.2-52
	c3.7-43.3,37-74.8,80.6-76.5c18.3-0.7,36.5-0.2,54.8-0.2c6.1,0,8.6,2.7,8.6,8.6c0.1,18.1,0.1,36.2,0,54.3c0,6.2-2.6,8.6-9.1,8.8
	c-12.3,0.2-24.6,0.4-37,0.5c-14.4,0.2-20,5.6-20.2,20c-0.2,13.5,0,27,0,41c1.9,0.1,3.5,0.2,5.1,0.2c15.7,0,31.3,0,47,0
	c10.2,0,12.4,2.2,12.4,12.2c0,17.9,0,35.9,0,53.8c0,8.4-2.1,10.6-10.5,10.6c-16.1,0.1-32.3,0-48.3,0c-1.7,0-3.3,0-5.6,0
	c0,2.2,0,4.1,0,6.1c0,47.6,0,95.2,0,142.9c0,12.8-1.5,14.2-14.5,14.2c-17.5,0-34.9,0-52.5,0c-9.6,0-11.9-2.2-11.9-11.8
	c0-48.2,0-96.4,0-144.8C147.4,220.5,147.4,218.7,147.4,216.1z"/>
</svg>
