<?xml version="1.0" encoding="utf-8"?>
<!-- Generator: Adobe Illustrator 27.0.1, SVG Export Plug-In . SVG Version: 6.00 Build 0)  -->
<svg version="1.1" id="Layer_1" xmlns="http://www.w3.org/2000/svg" xmlns:xlink="http://www.w3.org/1999/xlink" x="0px" y="0px"
	 width="384px" height="384px" viewBox="0 0 384 384" enable-background="new 0 0 384 384" xml:space="preserve">
<path d="M135.8,384c0-83.7,0-167.5,0-251.2c0-1.6,0-3.2,0-5c25.5,0,50.7,0,76.4,0c0,11.5,0,23,0,35.6c1.3-1.6,1.8-2.1,2.2-2.8
	c13.8-22.5,34.5-34.5,60.1-38.3c15.7-2.3,31.4-1.2,46.9,2.6c28.9,7.1,46.6,25.7,55.1,53.7c4.1,13.3,5.9,27,6.8,40.9
	c0.1,2.1,0.5,4.2,0.7,6.2c0,52.8,0,105.5,0,158.2c-26.5,0-53,0-79.5,0c0-44.6,0.1-89.2-0.2-133.8c0-8.3-0.9-16.7-2.2-25
	c-3.2-20.4-14.3-31.8-33.5-33.5c-26.2-2.4-45,8-50.4,35.5c-2,10.1-2.7,20.6-2.8,30.9c-0.3,42-0.2,84-0.2,125.9
	C188.8,384,162.2,384,135.8,384z M86.2,384c-0.1-1.7-0.2-3.5-0.2-5.2c0-82,0-164,0-246c0-1.7,0-3.4,0-5c-26.9,0-53.1,0-79.7,0
	c0,1.9,0,3.7,0,5.4c0,81.9,0,163.7,0,245.6c0,1.7-0.2,3.5-0.3,5.2C32.8,384,59.5,384,86.2,384z M40.5,0c-7.7,1.8-15.1,4.1-21.6,8.9
	C9.1,16.3,3,26,0.7,38c-0.2,0.8-0.5,1.7-0.7,2.5c0,3.8,0,7.5,0,11.2c0.3,1.1,0.6,2.1,0.8,3.2c4.2,21.7,23.8,37.9,45.6,37.7
	c21.9-0.2,41.2-16.4,45-37.8c4-22.4-8.1-44.1-29.3-51.9c-3.4-1.2-6.9-2-10.4-3C48,0,44.2,0,40.5,0z"/>
</svg>
