<?xml version="1.0" encoding="utf-8"?>
<!-- Generator: Adobe Illustrator 27.0.1, SVG Export Plug-In . SVG Version: 6.00 Build 0)  -->
<svg version="1.1" id="Layer_1" xmlns="http://www.w3.org/2000/svg" xmlns:xlink="http://www.w3.org/1999/xlink" x="0px" y="0px"
	 width="392.2px" height="392.2px" viewBox="0 0 392.2 392.2" enable-background="new 0 0 392.2 392.2" xml:space="preserve">
<path d="M0.5,194.5c2.2-3,4.1-6.4,6.7-9C21,171.4,35,157.5,49,143.5c6.7-6.7,12.4-6.7,19.1-0.1c0.8,0.8,1.6,1.6,2.4,2.4
	c6.7,6.8,6.7,12.3,0,19c-5,5-10,10.1-15.6,15.8c1.9,0,3.2,0,4.5,0c18.7,0,37.4,0,56.2,0c9,0,12.9,4.4,13.4,13.4
	c0.8,13.8-5.1,17.6-17.3,17.3c-19-0.5-37.9-0.1-57.5-0.1c0.9,1.1,1.4,1.9,2.1,2.5c4.9,5,10,9.8,14.8,14.9c4.6,4.8,4.7,10.8,0.3,15.8
	c-2,2.3-4.2,4.5-6.5,6.4c-4.4,3.8-10.5,3.8-14.6-0.2c-15.6-15.4-31.1-30.9-46.4-46.5c-1.5-1.5-2.2-3.9-3.3-5.9
	C0.5,197.1,0.5,195.8,0.5,194.5z M193.1,0.3c-2.6,1.9-5.4,3.7-7.9,5.8c-2.1,1.8-4,3.9-6,5.9c-12.2,12.2-24.5,24.5-36.7,36.8
	c-5.4,5.4-5.3,11.4-0.1,16.9c1.6,1.7,3.2,3.3,4.9,4.9c5,4.7,11.4,4.8,16.4,0c4.4-4.2,8.7-8.6,13-12.9c1.2-1.2,2.4-2.4,4.2-4.1
	c0,2.2,0,3.5,0,4.7c0,17.7,0.3,35.4-0.1,53.1c-0.3,12.2,3,18.4,17.8,17.5c8.6-0.5,12.9-4.4,12.9-13c0-18.8,0-37.7,0-56.5
	c0-1.3,0-2.7,0-5.2c5,5,9.3,9.1,13.2,13.5c9.4,10.6,15.7,9.4,24.3,0.1c6.3-6.9,6.5-12.3,0-18.9c-14.1-14.1-28.2-28.3-42.4-42.4
	c-2.4-2.4-5.4-4.1-8.1-6.2C196.7,0.3,194.9,0.3,193.1,0.3z M338.3,212.3c-4.2,4-8.3,8.1-12.6,11.9c-11.3,10-9.8,16.1,0,25.1
	c6.2,5.7,12,5.9,18,0c14.5-14.5,29-29,43.5-43.5c6-6,6-12.3,0.1-18.3c-8.3-8.4-16.7-16.8-25.1-25.1c-6.5-6.5-12.9-13-19.5-19.4
	c-6-6-11.9-5.9-18,0.1c-1.5,1.5-3.1,3-4.6,4.6c-4.5,5-4.5,10.9,0.1,15.7c4.8,5,9.7,9.7,14.6,14.6c0.7,0.7,1.4,1.6,2.4,2.8
	c-19.4,0-38.1,0.4-56.8-0.1c-13.2-0.4-17.8,4-17.1,17.3c0.4,9,4.4,13.4,13.3,13.4c19.1,0,38.2,0,57.3,0c1.2,0,2.4,0,3.7,0
	C337.8,211.7,338.1,212,338.3,212.3z M211.6,280.5c0.3-13-3.9-18-17.2-17.3c-9,0.5-13.5,4.6-13.5,13.7c0,19,0,37.9,0,56.9
	c0,1.3,0,2.6,0,5c-6.3-6.3-11.6-11.9-17.2-17.3c-5-4.8-11.3-4.7-16.4,0c-1.7,1.6-3.3,3.2-4.9,4.9c-5.2,5.4-5.3,11.5,0,16.9
	c14.8,14.9,29.7,29.8,44.6,44.6c5.4,5.4,11.9,5.4,17.2,0c15.3-15.2,30.5-30.4,45.6-45.6c5.2-5.2,5.2-11.2,0.2-16.6
	c-1.1-1.2-2.3-2.4-3.5-3.5c-6.8-6.8-12.7-6.8-19.4-0.1c-5,5-10,10-15.8,15.7C211.5,317.9,211.1,299.2,211.6,280.5z M196.4,165.5
	c-16.7-0.2-30.8,13.7-30.8,30.5c-0.1,16.6,13.7,30.4,30.3,30.6c16.7,0.2,30.8-13.8,30.8-30.5C226.8,179.5,213.1,165.7,196.4,165.5z"
	/>
</svg>
