<?xml version="1.0" encoding="utf-8"?>
<!-- Generator: Adobe Illustrator 27.0.1, SVG Export Plug-In . SVG Version: 6.00 Build 0)  -->
<svg version="1.1" id="Layer_1" xmlns="http://www.w3.org/2000/svg" xmlns:xlink="http://www.w3.org/1999/xlink" x="0px" y="0px"
	 width="384px" height="384px" viewBox="0 0 384 384" enable-background="new 0 0 384 384" xml:space="preserve">
<path d="M0,243.8c0-64.5,0-129,0-193.5c0.2-0.9,0.6-1.9,0.7-2.9C4.4,27.5,15.5,13.2,33.9,4.8C39,2.5,44.8,1.6,50.2,0
	c94.5,0,189,0,283.5,0c0.7,0.2,1.4,0.5,2.1,0.7C359.6,5,375,18.9,382.1,41.9c0.8,2.7,1.3,5.5,1.9,8.3c0,64.3,0,128.5,0,192.8
	c-0.2,0.9-0.5,1.9-0.7,2.8c-4.4,23.4-18.1,38.6-40.8,45.7c-2.8,0.9-3.7,1.8-3.7,4.7c0.1,24.5,0,49,0.1,73.5
	c0.1,6.9-2.2,11.9-8.9,14.3c-1.8,0-3.5,0-5.2,0c-2.8-2.2-5.9-4.1-8.4-6.6c-17-16.9-34-33.9-50.9-50.8c-0.9-0.9-1.9-1.8-3-2.8
	c-9.5,11.4-21.5,15.2-35.6,15.1c-33.5-0.3-67-0.1-100.5,0c-2.3,0-4.9,0.9-6.7,2.3c-16,12.6-31.8,25.4-47.7,38.1
	c-2.3,1.8-5,3.2-7.5,4.8c-1.8,0-3.5,0-5.2,0c-6.5-2.8-8.7-7.7-8.5-14.6c0.4-9.5,0-19,0.2-28.5c0-2.7-0.6-4-3.3-5.2
	c-13.8-5.8-22.4-16.1-24.4-31.1c-0.9-6.3-0.6-12.7-0.6-19.1c0-2.3-0.6-3.8-2.5-5.4C11,272.7,5,263.1,1.9,251.7
	C1.2,249,0.6,246.4,0,243.8z M315.2,345.1c0.4-0.2,0.8-0.4,1.2-0.6c0-1.3,0-2.6,0-4c0-18.7,0-37.5,0-56.2c0-8.4,3.7-13,11.9-13.1
	c16.3-0.2,33.4-14.1,33.3-36.2c-0.3-58.7-0.1-117.5-0.1-176.2c0-22-14.3-36.3-36.4-36.3c-38.1,0-76.2,0-114.4,0
	c-51.1,0-102.2,0-153.3,0c-19.5,0-34.8,14.4-34.8,33.2c-0.2,60.7-0.1,121.5,0,182.2c0,8.4,3.2,15.8,8.9,22.1
	c7.5,8.2,17.1,11.2,28,11.2c58.4-0.1,116.7,0,175.1-0.1c5.1,0,9,1.6,12.6,5.2c20.2,20.4,40.6,40.7,60.9,61
	C310.5,339.8,312.8,342.5,315.2,345.1z M246.4,307.3c-3.8-3.7-7.5-7.1-10.9-10.7c-2-2.2-4.2-2.9-7.2-2.9
	c-53.2,0.1-106.5,0.1-159.7,0.1c-7.7,0-15.4,0-23.6,0c0,1,0,3,0,5c0.2,9.5,6.4,16.3,15.7,17.3c9.3,1,12.6,4.7,12.6,14.2
	c0,6.1,0,12.1,0,18.8c1.7-1.3,2.8-2,3.8-2.8c10.7-8.6,21.5-17.1,32.1-25.9c3.6-3,7.4-4.2,12-4.2c35.4,0.1,70.7,0.1,106.1,0
	c2.1,0,4.3,0,6.4-0.3C239.2,315.2,243.2,312.4,246.4,307.3z M181.2,179.5c0.1,7.4,4.6,12.4,11.1,12.5c6.5,0.1,11.2-5,11.3-12.3
	c0.1-5.4,0.1-10.7,0-16.1c0-6.7,2.5-12.4,7.2-17.1c4.9-4.8,10-9.5,14.5-14.7c12.3-14.2,15.3-30.5,7.9-47.8
	c-7.5-17.6-21.6-27.1-40.7-27.4c-18.6-0.3-32.3,8.7-41.1,25.2c-5.2,9.7-4.7,20.2-4.6,30.7c0.1,6.7,4.9,11.6,11.2,11.6
	c6.2,0,11.1-4.9,11.3-11.6c0.1-3.9-0.1-7.7,0.1-11.6c0.3-9.1,4.7-15.7,12.8-19.7c8.1-3.9,16.1-3.1,23.3,2.3
	c10.8,7.9,12.1,23.3,3,33.4c-3,3.3-6.2,6.6-9.5,9.6c-13,11.5-19.5,25.7-17.9,43.2C181.2,173,181.2,176.3,181.2,179.5z M191.9,214.6
	c-5.9,0.1-11.2,5.4-11.1,11c0.1,6.4,5.2,11.5,11.4,11.4c6-0.1,11.2-5.2,11.1-10.9C203.2,219.8,197.9,214.5,191.9,214.6z"/>
</svg>
