<?xml version="1.0" encoding="utf-8"?>
<!-- Generator: Adobe Illustrator 27.0.1, SVG Export Plug-In . SVG Version: 6.00 Build 0)  -->
<svg version="1.1" id="Layer_1" xmlns="http://www.w3.org/2000/svg" xmlns:xlink="http://www.w3.org/1999/xlink" x="0px" y="0px"
	 width="409.6px" height="409.6px" viewBox="0 0 409.6 409.6" enable-background="new 0 0 409.6 409.6" xml:space="preserve">
<path d="M1.1,333.5c45.4,4.1,85.8-6.9,122.8-34.7c-25-1.5-45.2-10.9-61.2-28.9c-7.5-8.4-13.1-18-16.8-29.4
	c12.4,1.5,24.2,1.8,36.5-1.6c-45.6-11.4-67-51.2-65.7-82.6c5.9,2.2,11.7,4.9,17.7,6.6c5.9,1.6,12.1,2.3,18.4,2.8
	c-19.9-15.2-32-34.8-35-59.3c-2.4-19.4,1.9-37.6,10.8-52c45.3,53.2,102.5,82.7,172.7,87.4c-2.1-11.1-2.3-21.7-0.9-32.3
	c4.2-31,29.5-59.8,59.9-67.5c31.1-7.9,58.4-0.8,81.9,21c1.2,1.1,3.5,1.7,5.1,1.4c16.3-3.3,31.6-9.1,46.1-17.2c1-0.6,2.1-1.1,3.9-2
	c-6.4,19.6-18.3,33.9-34.4,45.2c15.7-1.5,30.4-5.9,44.8-11.9c0.3,0.3,0.6,0.7,0.9,1c-6.7,7.9-13.2,16.1-20.4,23.6
	c-5.7,5.9-12.4,10.8-18.5,16.4c-1.3,1.2-2.5,3.4-2.5,5.2C367,211,333,280.4,262.7,331c-29.7,21.3-63.5,32.9-99.8,37.6
	c-34.2,4.5-68,2.3-101.2-7.2c-20.9-6-40.6-14.9-59.1-26.5C2.3,334.6,2,334.3,1.1,333.5z"/>
</svg>
