<?xml version="1.0" encoding="utf-8"?>
<!-- Generator: Adobe Illustrator 27.0.1, SVG Export Plug-In . SVG Version: 6.00 Build 0)  -->
<svg version="1.1" id="Layer_1" xmlns="http://www.w3.org/2000/svg" xmlns:xlink="http://www.w3.org/1999/xlink" x="0px" y="0px"
	 width="405.1px" height="405.1px" viewBox="0 0 405.1 405.1" enable-background="new 0 0 405.1 405.1" xml:space="preserve">
<path d="M404.6,269.6c-4.6-0.1-9.2-0.2-13.8-0.2c-26.6,0-53.2,0-79.7,0c-1.6,0-3.1,0-5,0c0.2,4.3,0.8,8.3,0.5,12.3
	c-0.4,6.6-0.4,13.6-2.3,19.8c-5.4,17.8-21,29.1-40.6,29.2c-41.1,0.3-82.1,0.4-123.2,0c-25.4-0.2-42.9-18.7-43-44.3c0-5.5,0-11,0-17
	c-31.9,0-64.3,0-96.6,0c-3.2-26.6,11.5-66.5,53.7-82.4c-13.6-10.7-20.5-24.5-19.1-41.8c1-12.5,6.5-22.9,16-31.1
	c18.4-15.7,46.2-14.4,63,3c9.7,10.2,14.1,22.4,12.8,36.4c-1.3,13.8-8,24.8-18.5,32.9c8.8,5.1,17.5,10.2,26.8,15.6
	c10.1-8.2,22.1-15,36.1-19.4c-18.4-12.4-28-29.1-28-50.7c0-16.7,6.5-30.9,18.7-42.4c24.2-22.6,62.4-20.3,84.2,5.1
	c21.1,24.5,19.1,65.9-14.2,88c13.9,4.5,26.1,11,36.4,19.7c9.3-5.5,18.2-10.7,27.1-16c-13.1-10.2-19.8-24.1-18.4-41.4
	c1-12.3,6.5-22.6,15.9-30.7c18.4-16.1,47.1-14.3,63.8,3.6c16.4,17.6,18.4,49.4-6.7,69.1c4.5,2.2,9,4.1,13.2,6.6
	c23,13.7,36.4,33.9,40.1,60.5c0.1,0.7,0.5,1.5,0.7,2.2C404.6,260.6,404.6,265.1,404.6,269.6z M201.7,317.9c5.4,0,10.8,0,16.2,0
	c16.3-0.1,32.6,0.2,48.9-0.3c13.6-0.4,25.4-12.4,26.5-25.8c2-24.2-4.3-46-19.1-65.4c-23.8-31.3-68.1-44-104.6-29.4
	c-33.5,13.5-53.2,38.4-58.5,74.1c-1.2,7.8-1.3,16.2,0.2,23.9c2.6,14.2,14.9,22.8,30.4,22.9C161.7,318,181.7,317.9,201.7,317.9z
	 M201.8,178.1c25.3,0,45.7-20.3,45.7-45.6c0-25.2-20.4-45.6-45.7-45.5c-25.2,0.1-45.7,20.7-45.6,45.8
	C156.4,157.9,176.8,178.1,201.8,178.1z M279,211.8c14.1,18.6,19.1,27.3,23,40.9c0.8,2.9,2.1,3.8,5.1,3.8c26.7-0.1,53.4-0.1,80.1-0.1
	c1.3,0,2.5,0,4.2,0c-4.6-27.3-18.5-46.6-43.9-56.3C322.8,190.5,300,195.4,279,211.8z M125,211.3c-22.8-17.3-47.3-21.3-73.3-9
	c-22.4,10.6-34.7,29.1-38.5,53.8c1.5,0.2,2.4,0.3,3.3,0.3c27.1,0,54.2,0,81.3,0.1c2.6,0,3.1-1.2,4-3.2c4-9.1,7.9-18.3,12.6-27
	C117.2,220.9,121.3,216.4,125,211.3z M356.6,150.9c1.2-16.9-11.9-34.1-31.9-34.9c-16.8-0.7-33,11.7-34.5,31.7
	c-1.3,17.8,13.1,33.9,32.3,34.7C340.3,183.3,355.9,169.2,356.6,150.9z M114.2,147.5c-0.8-18.7-16.9-32.2-34.2-31.5
	c-20.3,0.9-33.1,17.8-32.1,34.8c1.2,20,17.5,32.7,34.5,31.6C101.8,181.2,115.8,165.3,114.2,147.5z"/>
</svg>
